<svg width="48" height="47" viewBox="0 0 48 47" fill="none" xmlns="http://www.w3.org/2000/svg">
<rect x="0.5" y="0.5" width="47" height="46" stroke="#0266C1"/>
<path d="M31.7921 21.0644H25.948C24.119 21.0644 22.6363 22.558 22.6363 24.4005C22.6363 26.243 24.119 27.7367 25.948 27.7367H28.4804C30.3094 27.7367 31.7921 29.2303 31.7921 31.0728C31.7921 32.9154 30.3094 34.409 28.4804 34.409H16.2077M19.3246 28.8783C19.3246 27.1442 17.9291 25.7384 16.2077 25.7384C14.4863 25.7384 13.0908 27.1442 13.0908 28.8783V28.9963C13.0908 29.6849 13.3074 30.3557 13.7094 30.9126L16.2015 34.3646C16.2046 34.3688 16.2108 34.3688 16.2139 34.3646L18.706 30.9126C19.108 30.3557 19.3246 29.6849 19.3246 28.9963V28.8783ZM16.8102 27.5858L16.8289 27.5947C17.2062 27.7744 17.4812 28.118 17.5757 28.5275C17.6712 28.9415 17.5685 29.3804 17.3026 29.7104C17.0395 30.0367 16.6416 30.2298 16.2243 30.2298H16.1911C15.7738 30.2298 15.3759 30.0367 15.1128 29.7104C14.8469 29.3804 14.7442 28.9415 14.8397 28.5275C14.9342 28.118 15.2092 27.7744 15.5865 27.5947L15.6052 27.5858C15.9866 27.404 16.4288 27.404 16.8102 27.5858ZM34.909 15.7528C34.909 14.0187 33.5135 12.5908 31.7921 12.5908C30.0707 12.5908 28.6752 14.0187 28.6752 15.7528C28.6752 16.4345 28.8934 17.1054 29.2974 17.6523L31.786 21.021C31.789 21.0251 31.7952 21.0251 31.7983 21.021L34.2868 17.6523C34.6908 17.1054 34.909 16.4345 34.909 15.7528ZM32.3862 14.3923L32.4285 14.412C32.796 14.5831 33.0652 14.9147 33.1589 15.3114C33.255 15.7184 33.1553 16.1472 32.89 16.4689L32.8767 16.485C32.618 16.7987 32.2341 16.9802 31.8293 16.9802H31.755C31.3501 16.9802 30.9663 16.7987 30.7076 16.485L30.6943 16.4689C30.4289 16.1472 30.3293 15.7184 30.4253 15.3114C30.519 14.9147 30.7882 14.5831 31.1557 14.412L31.198 14.3923C31.5749 14.2168 32.0093 14.2168 32.3862 14.3923Z" stroke="#0266C1" stroke-linecap="round"/>
</svg>
